<?xml version="1.0" encoding="UTF-8"?>
<svg width="52px" height="51px" viewBox="0 0 52 51" version="1.1" xmlns="http://www.w3.org/2000/svg" xmlns:xlink="http://www.w3.org/1999/xlink">
    <!-- Generator: Sketch 52.2 (67145) - http://www.bohemiancoding.com/sketch -->
    <title>Vibe</title>
    <desc>Created with Sketch.</desc>
    <g id="Page-1" stroke="none" stroke-width="1" fill="none" fill-rule="evenodd">
        <g id="02" transform="translate(-755.000000, -60.000000)" fill="#FFFFFF" fill-rule="nonzero">
            <g id="Device-1">
                <g id="Vibe" transform="translate(781.000000, 85.500000) scale(-1, 1) translate(-781.000000, -85.500000) translate(755.000000, 60.000000)">
                    <path d="M29.2960794,18.7065013 C31.7985298,18.7065013 31.6793109,14.2836633 33.1472513,12.1314424 C34.3452182,10.0524558 36.3509188,8.44399886 38.543157,7.67741253 C41.2417808,6.73375227 44.3208852,6.9350614 46.9829348,8.49117713 C51.8075115,11.3114099 53.4352492,17.513713 50.6185889,22.3444088 L40.2590632,40.0311006 C40.135341,38.2041507 39.599368,36.3770923 38.6147813,34.6884829 L29.2960794,18.7065013 Z" id="Combined-Shape" opacity="0.900000036"></path>
                    <path d="M19.305255,45.9765716 C22.1219154,50.8072673 28.3163619,52.4370696 33.1409385,49.6168368 C37.9655152,46.796604 39.593253,40.594301 36.7765926,35.7636052 L18.8527487,5.02342844 C16.0360883,0.192732667 9.84164182,-1.4370696 5.01706517,1.38316319 C0.19248853,4.20339599 -1.43524924,10.405699 1.38141112,15.2363948 L19.305255,45.9765716 Z" id="Combined-Shape"></path>
                </g>
            </g>
        </g>
    </g>
</svg>